<svg xmlns="http://www.w3.org/2000/svg" viewBox="28.01 28.36 93.78 93.78">
  <!-- Conmux 桌面/系统图标 = 明图(icon_light.svg)去掉 #F7F3EA 背景方块，其余原样：
       近黑花瓣 #EDE8DD + 青绿点 #509598，6 瓣，原 viewBox/构图不变。仅删 <rect>。 -->
  <path fill="#EDE8DD" d="m41.5 54.1v5.2c0 2.2 1.6 4.2 4.5 4.1 7.9-0.1 12.3-0.5 17.2 3.6 3.4 2.9 6.2 6.8 14.6 7.2 4.9 0.1 6.6-0.4 5.9-1.8-3-3.9-8.3-6.4-9.8-16-0.7-4.5-0.5-13.4-1.2-16.4-0.4-1.4-1.8-3.2-3.7-3.2h-9.4c-9.5-0.1-17.7 7.8-18.1 16.6v0.7z"/>
  <path fill="#EDE8DD" d="m77.2 40.5c0.1 3.4 0.1 9.3 0.1 12.7 0.4 10.6 6.7 12 10.2 17.2 2.2 2.7 4.2 3.3 7.1 2.6 5.3-1.2 13.6-3.3 13.6-12.6v-6c0-8-7.2-17.6-17.6-17.6h-10.2c-2 0-3.2 1.7-3.2 3.7z"/>
  <path fill="#EDE8DD" d="m46 68.7c-2.4 0-4.3 1.3-4.3 4.1v7.9c0 1.9 1.5 3.4 3.5 3.4 6.1 0.1 10.3 0 14-2.2s6.6-5.9 14.5-6c-4-0.3-6.7-1.3-10.6-3.9-4.2-2.8-6.5-3.6-11.6-3.5-2 0-4.4 0-5.5 0.2z"/>
  <path fill="#EDE8DD" d="m73.7 78.2c-4.7 0.3-7.3 1.8-10 4.3-4.8 4.5-8.5 5.3-17.5 6.2-2.8 0.2-4.8 1.7-4.7 4.6 0 2 0 4.1 0.9 7 1.9 6.1 8.2 13.3 17.6 13.4h8.8c2.3 0 3.6-1.4 3.9-3.4 0.6-4.6 0.2-12.5 1.8-18.3 1-3.3 3.2-7 6-9.5 3.1-2.9 2.1-3.3 0.9-3.6-2.2-0.4-4.8-0.9-7.7-0.7z"/>
  <path fill="#EDE8DD" d="m77.2 96.4v13.3c0 2.3 1.4 4 3.8 4h9.5c9.2 0 17.7-7.5 17.7-17.8v-8.9c0-4.8-3.3-9.8-10.7-9.9-3.6 0-7.4 1.1-10.3 3.2-5.8 4.1-10 9.4-10 16.1z"/>
  <path fill="#EDE8DD" d="m90.6 36.8h-10.1c-2 0-3.3 1.7-3.3 3.6 0.1 3.5 0.1 9.3 0.1 12.8 0.4 10.6 6.7 12 10.2 17.1 2.2 2.7 4.2 3.5 7.1 2.7 5.3-1.3 13.7-3.3 13.7-12.6v-6c0-8-7.3-17.6-17.7-17.6z"/>
  <path fill="#509598" d="m77.8 76.2c2.3 0 7.6 0 8.1-2.2 0.8 1 3.1 1.8 6.5 1.7-2.9 0.3-5.6 1.7-6.7 1.9l-7.9-1.4z"/>
</svg>
